<?xml version="1.0" standalone="no"?>
<!DOCTYPE svg PUBLIC "-//W3C//DTD SVG 20010904//EN"
 "http://www.w3.org/TR/2001/REC-SVG-20010904/DTD/svg10.dtd">
<svg version="1.0" xmlns="http://www.w3.org/2000/svg"
 width="643.000000pt" height="378.000000pt" viewBox="0 0 643.000000 378.000000"
 preserveAspectRatio="xMidYMid meet">

<g transform="translate(0.000000,378.000000) scale(0.100000,-0.100000)"
fill="#000000" stroke="none">
<path d="M575 3391 c-134 -38 -252 -124 -324 -235 -120 -184 -123 -439 -7
-619 42 -66 146 -164 213 -200 66 -35 191 -67 262 -67 75 1 164 21 234 53 l57
26 0 205 0 206 -145 0 -145 0 0 -30 0 -30 115 0 115 0 0 -158 0 -158 -65 -23
c-182 -65 -374 -19 -516 123 -98 98 -149 217 -149 351 0 139 52 265 149 363
104 104 216 152 350 152 91 -1 149 -13 213 -45 l48 -24 16 25 c19 28 21 25
-32 52 -103 52 -273 67 -389 33z"/>
<path d="M1379 2886 c-60 -13 -120 -47 -164 -93 -103 -109 -103 -296 -1 -410
61 -68 123 -97 217 -101 67 -4 85 0 138 23 80 36 91 50 63 77 -20 20 -23 21
-40 5 -73 -66 -225 -61 -308 10 -32 27 -58 73 -48 82 5 5 115 50 244 101 129
51 236 94 238 95 6 5 -40 90 -70 127 -32 41 -113 84 -173 92 -22 2 -65 -1 -96
-8z m160 -76 c42 -21 105 -90 93 -101 -7 -6 -419 -169 -428 -169 -10 0 -3 91
11 131 23 63 58 104 117 133 66 33 150 35 207 6z"/>
<path d="M2093 2890 c-141 -30 -234 -142 -241 -292 -4 -65 0 -85 21 -131 32
-70 83 -126 144 -157 41 -21 62 -25 143 -25 84 0 101 4 146 27 137 72 198 237
142 385 -51 138 -209 224 -355 193z m156 -72 c39 -12 106 -70 126 -109 66
-127 21 -276 -104 -341 -100 -52 -206 -35 -287 46 -88 87 -101 219 -30 315 70
95 173 126 295 89z"/>
<path d="M2985 2893 c-79 -17 -144 -58 -185 -114 -26 -37 -28 -38 -34 -16 -3
12 -6 43 -6 70 l0 47 -86 0 -85 0 3 -27 c3 -27 6 -28 61 -31 l57 -3 0 -234 0
-234 -62 -3 c-60 -3 -63 -4 -66 -30 l-3 -28 155 0 156 0 0 30 0 30 -60 0 -60
0 0 133 c0 72 5 150 11 172 23 82 90 143 179 160 54 11 55 12 58 48 2 20 0 36
-5 36 -4 -1 -17 -3 -28 -6z"/>
<path d="M3379 2886 c-143 -31 -239 -151 -239 -300 0 -127 65 -229 181 -281
55 -24 70 -27 143 -23 97 5 147 28 201 90 l37 43 -4 -130 c-3 -109 -8 -138
-27 -183 -31 -69 -96 -126 -161 -142 -75 -18 -177 5 -226 51 -20 19 -21 19
-45 -7 l-24 -25 25 -20 c77 -62 213 -86 309 -54 68 22 151 98 182 167 24 52
24 59 27 401 l3 347 59 0 c60 0 60 0 60 30 l0 30 -85 0 -85 0 0 -66 0 -66 -45
50 c-72 80 -176 112 -286 88z m176 -75 c122 -55 178 -218 116 -339 -56 -110
-213 -165 -326 -113 -51 23 -121 102 -135 150 -35 125 21 251 135 302 53 25
157 25 210 0z"/>
<path d="M4239 2886 c-183 -40 -284 -224 -224 -406 21 -62 88 -138 151 -170
74 -37 185 -40 256 -7 29 14 62 32 73 40 19 15 19 16 2 35 -18 20 -19 20 -74
-9 -91 -48 -204 -36 -279 28 -32 27 -58 73 -48 83 5 4 115 50 244 100 129 51
236 94 238 95 6 6 -47 102 -73 133 -31 37 -114 78 -170 86 -22 2 -65 -1 -96
-8z m160 -76 c42 -21 105 -90 93 -101 -7 -6 -419 -169 -428 -169 -10 0 -3 91
11 131 23 63 58 104 117 133 66 33 150 35 207 6z"/>
<path d="M5993 2890 c-141 -30 -234 -142 -241 -292 -4 -65 0 -85 21 -131 32
-70 83 -126 144 -157 41 -21 62 -25 143 -25 84 0 101 4 146 27 137 72 198 237
142 385 -51 138 -209 224 -355 193z m163 -75 c40 -16 101 -70 119 -105 27 -53
37 -119 25 -177 -30 -141 -175 -223 -325 -182 -52 14 -139 102 -154 156 -22
79 -10 164 33 222 71 96 192 130 302 86z"/>
<path d="M4838 2870 c-65 -35 -97 -108 -78 -179 15 -56 47 -82 148 -119 94
-35 125 -59 136 -105 9 -37 -19 -94 -55 -112 -33 -18 -123 -20 -168 -4 -28 10
-31 15 -31 55 0 42 -1 44 -30 44 l-31 0 3 -62 c3 -58 5 -63 35 -81 41 -23 137
-37 191 -27 140 25 202 194 105 283 -11 9 -62 35 -113 57 -118 50 -130 61
-130 116 0 35 5 47 31 68 34 29 91 35 148 15 28 -10 31 -15 31 -55 0 -42 1
-44 30 -44 l31 0 -3 62 c-3 60 -4 61 -43 82 -57 30 -158 33 -207 6z"/>
<path d="M5358 2870 c-66 -36 -97 -108 -78 -181 16 -57 43 -79 148 -117 94
-35 126 -59 137 -104 9 -36 -20 -95 -56 -113 -33 -18 -123 -20 -168 -4 -28 10
-31 15 -31 55 0 42 -1 44 -30 44 l-31 0 3 -62 3 -63 47 -23 c70 -35 180 -34
241 1 100 59 117 199 32 265 -13 11 -62 34 -107 52 -108 43 -128 61 -128 116
0 35 5 47 31 68 34 29 91 35 148 15 28 -10 31 -15 31 -55 0 -42 1 -44 30 -44
l31 0 -3 62 c-3 60 -4 61 -43 82 -57 30 -158 33 -207 6z"/>
<path d="M158 1485 c-5 -5 -8 -19 -8 -31 0 -21 5 -23 53 -26 l52 -3 0 -495 0
-495 -52 -3 c-52 -3 -53 -4 -53 -34 l0 -30 223 4 c188 4 231 8 284 25 231 76
373 254 390 489 20 275 -143 509 -403 579 -64 18 -473 34 -486 20z m387 -65
c274 -30 460 -252 442 -525 -16 -231 -165 -402 -392 -450 -38 -8 -116 -15
-172 -15 l-103 0 0 500 0 500 68 0 c37 0 108 -5 157 -10z"/>
<path d="M1413 970 c-97 -20 -179 -86 -220 -177 -34 -73 -30 -193 7 -266 85
-169 313 -219 465 -103 20 15 20 15 -2 37 -21 22 -23 22 -42 5 -45 -41 -146
-57 -224 -35 -44 12 -142 100 -135 121 3 7 112 55 244 107 131 52 241 96 243
97 6 5 -42 93 -70 127 -57 69 -171 107 -266 87z m171 -88 c21 -15 50 -41 63
-59 l24 -31 -208 -82 c-114 -45 -214 -84 -220 -87 -18 -7 -16 80 1 130 51 141
226 207 340 129z"/>
<path d="M2123 970 c-89 -18 -171 -80 -215 -163 -19 -35 -23 -58 -23 -137 0
-81 4 -102 25 -143 48 -95 143 -157 251 -165 72 -5 155 15 197 47 23 17 23 18
5 40 l-19 23 -36 -22 c-47 -27 -134 -37 -193 -20 -56 16 -132 81 -156 135 -12
24 -19 64 -19 101 0 159 144 278 296 244 81 -18 94 -32 94 -95 0 -52 1 -55 25
-55 25 0 25 1 25 78 0 75 -1 78 -29 95 -32 19 -135 48 -166 46 -11 -1 -39 -5
-62 -9z"/>
<path d="M2729 965 c-144 -46 -227 -167 -217 -319 17 -265 339 -384 528 -196
149 150 105 407 -87 497 -65 30 -162 38 -224 18z m196 -74 c96 -43 157 -163
137 -267 -42 -209 -297 -275 -435 -113 -45 52 -61 105 -54 180 6 68 26 108 79
160 70 68 175 84 273 40z"/>
<path d="M3602 961 c-60 -21 -117 -63 -148 -109 -21 -31 -22 -31 -28 -9 -3 12
-6 46 -6 75 l0 53 -82 -3 c-82 -3 -83 -3 -86 -30 -3 -28 -3 -28 57 -28 l61 0
0 -240 0 -240 -65 0 -65 0 0 -30 0 -30 155 0 155 0 0 30 0 30 -61 0 -61 0 4
158 c4 176 10 194 77 255 36 33 67 46 144 62 23 5 27 10 27 40 0 40 -5 41 -78
16z"/>
<path d="M4030 946 c-63 -24 -200 -96 -200 -106 0 -5 17 -1 38 9 132 63 173
81 187 81 33 0 12 -20 -55 -51 -38 -17 -67 -35 -65 -40 3 -4 33 5 68 21 34 15
65 26 70 23 15 -9 6 -21 -25 -32 -60 -21 -178 -76 -178 -83 0 -14 15 -9 108
32 97 43 112 47 112 28 0 -7 -24 -21 -53 -30 -83 -27 -246 -107 -218 -108 14
0 69 21 123 46 97 45 150 59 156 39 2 -5 -23 -16 -55 -26 -32 -9 -101 -36
-153 -61 -52 -25 -107 -48 -122 -52 -16 -3 -28 -11 -28 -17 0 -17 44 -3 140
43 102 48 184 78 217 78 42 0 20 -23 -33 -35 -27 -6 -89 -31 -139 -54 -98 -46
-167 -71 -202 -71 -13 0 -23 -4 -23 -10 0 -28 93 -3 235 63 87 40 123 52 173
55 38 3 62 0 62 -6 0 -5 -7 -12 -15 -16 -8 -3 -15 -17 -15 -31 0 -14 -7 -28
-16 -32 -12 -4 -14 -14 -9 -43 7 -44 16 -122 18 -170 2 -28 7 -36 29 -44 49
-17 60 8 73 166 2 24 6 51 10 60 4 11 0 21 -14 30 -12 7 -21 22 -21 33 0 12
-5 26 -11 32 -7 7 -4 17 14 35 24 24 63 146 69 218 l3 35 -110 2 c-71 1 -123
-3 -145 -11z m230 -35 c0 -38 -48 -191 -60 -191 -4 0 -11 6 -14 13 -5 10 -7
10 -12 0 -9 -21 -24 -15 -35 15 -14 33 -49 162 -49 180 0 9 24 12 85 12 l85 0
0 -29z m-70 -276 c0 -8 -4 -15 -9 -15 -13 0 -22 16 -14 24 11 11 23 6 23 -9z
m17 -43 c11 -7 11 -52 -2 -164 -7 -55 -26 -81 -42 -56 -7 13 -8 17 -17 123 -4
38 -9 71 -11 74 -3 2 0 10 6 18 12 14 47 17 66 5z"/>
<path d="M4170 779 c0 -5 5 -7 10 -4 6 3 10 8 10 11 0 2 -4 4 -10 4 -5 0 -10
-5 -10 -11z"/>
</g>
</svg>
