<?xml version="1.0" standalone="no"?>
<!DOCTYPE svg PUBLIC "-//W3C//DTD SVG 20010904//EN"
 "http://www.w3.org/TR/2001/REC-SVG-20010904/DTD/svg10.dtd">
<svg version="1.0" xmlns="http://www.w3.org/2000/svg"
 width="643.000000pt" height="378.000000pt" viewBox="0 0 643.000000 378.000000"
 preserveAspectRatio="xMidYMid meet">

<g transform="translate(0.000000,378.000000) scale(0.100000,-0.100000)"
fill="#000000" stroke="none">
<path d="M575 3391 c-134 -38 -252 -124 -324 -235 -120 -184 -123 -439 -7
-619 42 -66 146 -164 213 -200 66 -35 191 -67 262 -67 75 1 164 21 234 53 l57
26 0 205 0 206 -145 0 -145 0 0 -30 0 -30 115 0 115 0 0 -159 0 -159 -62 -22
c-186 -63 -377 -18 -519 124 -98 98 -149 217 -149 351 0 139 52 265 149 363
104 104 216 152 350 152 91 -1 149 -13 213 -45 l48 -24 16 25 c19 29 21 25
-33 53 -104 52 -271 66 -388 32z"/>
<path d="M1379 2886 c-184 -40 -284 -224 -223 -408 20 -60 88 -136 150 -168
74 -37 185 -40 256 -7 29 14 62 32 73 40 20 16 20 16 -2 38 -21 21 -23 22 -41
6 -31 -28 -89 -47 -147 -47 -86 0 -155 35 -202 104 -20 31 -21 35 -5 41 73 27
478 188 480 190 6 6 -47 102 -73 133 -31 37 -114 78 -170 86 -22 2 -65 -1 -96
-8z m160 -76 c42 -21 105 -90 93 -101 -7 -6 -419 -169 -428 -169 -2 0 -4 23
-4 51 0 96 59 184 150 223 51 22 143 20 189 -4z"/>
<path d="M2093 2890 c-141 -30 -234 -142 -241 -292 -4 -65 0 -85 21 -131 32
-70 83 -126 144 -157 41 -21 62 -25 143 -25 84 0 101 4 146 27 137 72 198 237
142 385 -51 138 -209 224 -355 193z m163 -75 c40 -16 101 -70 119 -105 66
-128 21 -277 -104 -342 -100 -52 -206 -35 -287 46 -56 55 -74 99 -74 176 2
176 180 292 346 225z"/>
<path d="M2985 2893 c-79 -17 -144 -58 -185 -114 -26 -37 -28 -38 -34 -16 -3
12 -6 43 -6 70 l0 47 -86 0 -85 0 3 -27 c3 -27 6 -28 61 -31 l57 -3 0 -234 0
-234 -62 -3 c-60 -3 -63 -4 -66 -30 l-3 -28 155 0 156 0 0 30 0 30 -60 0 -60
0 0 131 c0 71 5 150 11 174 21 83 97 147 192 163 40 7 42 9 45 45 2 20 0 36
-5 36 -4 -1 -17 -3 -28 -6z"/>
<path d="M3379 2886 c-142 -30 -240 -152 -240 -298 -1 -126 67 -231 182 -283
55 -24 70 -27 143 -23 97 5 147 28 201 90 l37 43 -4 -130 c-3 -109 -8 -138
-27 -183 -31 -69 -96 -126 -161 -142 -75 -18 -177 5 -226 51 -20 19 -21 19
-45 -7 l-24 -25 25 -20 c77 -62 213 -86 309 -54 68 22 151 98 182 167 24 52
24 59 27 401 l3 347 59 0 c60 0 60 0 60 30 l0 30 -85 0 -85 0 0 -66 0 -66 -45
50 c-72 80 -176 112 -286 88z m176 -75 c89 -40 153 -155 142 -252 -16 -129
-119 -219 -252 -219 -133 0 -232 92 -243 226 -8 108 45 201 142 245 54 25 157
25 211 0z"/>
<path d="M4239 2886 c-60 -13 -120 -47 -164 -93 -103 -109 -103 -296 -1 -410
61 -68 123 -97 217 -101 67 -4 85 0 138 23 80 36 91 50 63 77 -20 20 -23 21
-40 5 -73 -66 -225 -61 -308 10 -32 27 -58 73 -48 83 5 4 115 50 244 100 129
51 236 94 238 95 6 6 -47 102 -73 133 -31 37 -114 78 -170 86 -22 2 -65 -1
-96 -8z m160 -76 c42 -21 105 -90 93 -101 -7 -6 -419 -169 -428 -169 -10 0 -3
91 11 131 23 63 58 104 117 133 66 33 150 35 207 6z"/>
<path d="M5993 2890 c-141 -30 -234 -142 -241 -292 -4 -65 0 -85 21 -131 32
-70 83 -126 144 -157 41 -21 62 -25 143 -25 84 0 101 3 146 27 137 72 198 237
142 385 -51 138 -209 224 -355 193z m174 -82 c98 -46 155 -159 134 -267 -29
-146 -171 -231 -321 -191 -57 15 -144 100 -159 157 -61 217 144 395 346 301z"/>
<path d="M4844 2871 c-69 -32 -104 -106 -84 -180 15 -56 47 -82 148 -119 94
-35 125 -59 136 -105 9 -37 -19 -94 -55 -112 -33 -18 -123 -20 -168 -4 -28 10
-31 15 -31 55 0 42 -1 44 -30 44 l-31 0 3 -62 c3 -58 5 -63 35 -81 41 -23 137
-37 191 -27 140 25 202 194 105 283 -11 9 -62 35 -113 57 -118 50 -130 61
-130 116 0 35 5 47 31 68 34 29 91 35 148 15 28 -10 31 -15 31 -56 0 -42 1
-44 28 -41 26 3 27 5 27 62 0 59 0 59 -40 80 -56 29 -148 32 -201 7z"/>
<path d="M5358 2870 c-66 -36 -97 -108 -78 -181 16 -57 43 -79 148 -117 94
-35 125 -59 136 -105 9 -37 -19 -94 -55 -112 -33 -18 -123 -20 -168 -4 -28 10
-31 15 -31 55 0 42 -1 44 -30 44 l-31 0 3 -62 3 -63 47 -23 c70 -35 180 -34
241 1 96 56 116 190 40 260 -11 9 -62 35 -113 57 -118 50 -130 61 -130 116 0
35 5 47 31 68 34 29 91 35 148 15 28 -10 31 -15 31 -56 0 -42 1 -44 28 -41 26
3 27 5 27 62 0 59 0 59 -40 80 -57 30 -158 33 -207 6z"/>
<path d="M158 1485 c-5 -5 -8 -19 -8 -31 0 -21 5 -23 53 -26 l52 -3 0 -495 0
-495 -52 -3 c-52 -3 -53 -4 -53 -34 l0 -30 223 4 c188 4 231 8 284 25 231 76
373 254 390 489 20 275 -143 509 -403 579 -64 18 -473 34 -486 20z m387 -65
c272 -28 460 -252 442 -525 -16 -231 -165 -402 -392 -450 -38 -8 -116 -15
-172 -15 l-103 0 0 500 0 500 68 0 c37 0 108 -5 157 -10z"/>
<path d="M4281 1147 c-101 -33 -385 -179 -389 -199 -6 -30 22 -21 181 58 157
79 253 118 268 108 18 -11 8 -35 -18 -46 -71 -29 -200 -91 -221 -104 -18 -12
-21 -18 -12 -29 9 -11 30 -4 113 35 56 27 114 52 130 55 24 6 27 4 27 -17 0
-21 -8 -27 -56 -42 -57 -18 -308 -131 -331 -149 -16 -12 -7 -27 15 -27 9 0 62
21 117 46 137 63 237 103 258 104 11 0 17 -8 17 -23 0 -20 -10 -26 -80 -46
-43 -13 -132 -49 -197 -80 -65 -32 -151 -70 -190 -85 -72 -27 -87 -41 -58 -52
21 -9 100 20 250 92 141 67 265 110 290 100 8 -3 15 -14 15 -25 0 -15 -9 -22
-37 -26 -80 -13 -198 -57 -340 -126 -81 -40 -184 -84 -228 -99 -79 -28 -101
-45 -71 -56 27 -10 147 33 297 107 145 71 278 121 356 134 39 6 44 5 52 -17 8
-22 6 -24 -56 -35 -96 -18 -121 -27 -323 -123 -204 -97 -270 -120 -341 -120
-56 0 -79 -7 -79 -25 0 -31 76 -30 190 2 30 8 132 51 225 95 230 109 288 128
388 131 77 2 82 1 85 -19 2 -16 -4 -23 -22 -28 -23 -6 -26 -11 -26 -54 0 -43
-3 -50 -31 -66 -27 -16 -30 -22 -24 -50 4 -17 7 -55 6 -85 0 -31 5 -62 14 -73
9 -14 12 -36 8 -69 -4 -32 -1 -54 7 -64 8 -10 10 -30 5 -64 -6 -45 -4 -51 17
-65 40 -26 74 -29 112 -11 40 19 52 47 38 85 -7 18 -5 33 5 54 10 19 13 44 10
69 -4 26 0 51 10 70 9 19 13 41 8 64 -3 19 -1 49 7 70 12 34 12 36 -20 62 -27
23 -32 34 -32 69 0 36 -4 44 -25 54 -36 16 -30 51 10 58 27 5 32 13 62 95 50
138 85 286 81 347 l-3 53 -200 2 c-180 1 -206 -1 -264 -20z m429 -44 c0 -39
-35 -180 -72 -295 -25 -76 -36 -98 -50 -98 -13 0 -18 8 -18 25 0 18 -5 25 -20
25 -15 0 -20 -7 -20 -25 0 -17 -5 -25 -18 -25 -14 0 -26 24 -55 113 -43 131
-67 229 -67 275 l0 32 160 0 160 0 0 -27z m-140 -553 c0 -13 -7 -20 -18 -20
-24 0 -32 8 -25 26 8 22 43 17 43 -6z m48 -85 c21 -15 21 -17 5 -41 -13 -21
-14 -32 -5 -61 9 -29 8 -40 -5 -59 -11 -18 -14 -37 -9 -70 4 -31 1 -54 -9 -74
-8 -15 -14 -46 -12 -67 2 -36 0 -38 -28 -41 -46 -4 -57 8 -44 45 8 25 7 38 -6
63 -11 22 -14 44 -10 74 5 32 3 50 -9 69 -12 17 -15 34 -9 53 8 33 5 65 -8 78
-5 6 -2 17 8 28 21 23 109 25 141 3z"/>
<path d="M4530 835 c0 -8 9 -15 20 -15 11 0 20 7 20 15 0 8 -9 15 -20 15 -11
0 -20 -7 -20 -15z"/>
<path d="M1413 970 c-88 -18 -173 -82 -215 -163 -19 -35 -23 -58 -23 -137 0
-81 4 -102 25 -143 86 -169 313 -219 465 -103 20 15 20 15 -2 37 -21 22 -23
22 -42 5 -45 -41 -146 -57 -224 -35 -44 12 -142 100 -135 121 3 7 112 55 244
107 131 52 241 96 243 97 6 5 -42 93 -70 127 -57 69 -171 107 -266 87z m123
-65 c30 -9 61 -27 80 -47 64 -70 77 -58 -153 -148 -114 -46 -214 -85 -220 -87
-18 -7 -17 74 2 126 35 101 112 158 231 170 6 1 33 -6 60 -14z"/>
<path d="M2123 970 c-87 -18 -172 -82 -215 -163 -19 -35 -23 -58 -23 -137 0
-82 3 -102 25 -144 49 -97 164 -166 274 -166 60 0 139 22 175 49 22 17 22 18
4 40 l-19 23 -36 -22 c-47 -27 -134 -37 -193 -20 -56 16 -132 81 -156 135 -12
24 -19 64 -19 101 0 159 144 278 296 244 81 -18 94 -32 94 -95 0 -52 1 -55 25
-55 25 0 25 1 25 78 0 75 -1 78 -29 95 -32 19 -135 48 -166 46 -11 -1 -39 -5
-62 -9z"/>
<path d="M2729 965 c-97 -31 -174 -106 -205 -197 -25 -75 -16 -179 22 -247
125 -230 472 -208 564 36 41 109 11 251 -71 332 -74 73 -213 107 -310 76z
m160 -61 c162 -48 227 -239 130 -380 -64 -93 -192 -129 -297 -84 -64 28 -127
96 -143 154 -14 51 -6 143 15 185 27 52 94 110 145 125 61 19 87 19 150 0z"/>
<path d="M3602 961 c-60 -21 -117 -63 -148 -109 -21 -31 -22 -31 -28 -9 -3 12
-6 46 -6 75 l0 53 -82 -3 c-82 -3 -83 -3 -86 -30 -3 -28 -3 -28 57 -28 l61 0
0 -240 0 -240 -65 0 -65 0 0 -30 0 -30 155 0 155 0 0 30 0 30 -61 0 -61 0 4
158 c4 176 10 194 77 255 36 33 67 46 144 62 23 5 27 10 27 40 0 40 -5 41 -78
16z"/>
</g>
</svg>
