<svg xmlns="http://www.w3.org/2000/svg" width="643" height="378" viewBox="0 0 643 378" version="1.1">
	<path d="M 58.645 38.584 C 51.025 40.429, 40.752 45.874, 34.384 51.445 C 14.440 68.892, 9.910 101.818, 24.358 124.328 C 29.154 131.801, 39.820 141.335, 47.467 144.984 C 54.696 148.434, 65.078 150.965, 72 150.965 C 78.392 150.965, 89.248 148.491, 95.585 145.590 L 101 143.111 101 122.555 L 101 102 86.500 102 L 72 102 72 105 L 72 108 83.500 108 L 95 108 95 123.815 L 95 139.630 88.480 141.932 C 70.339 148.336, 51.221 143.851, 37.123 129.883 C 27.026 119.879, 22.034 108.003, 22.012 93.932 C 21.991 80.570, 27.154 68.080, 36.713 58.372 C 46.917 48.009, 58.454 42.981, 71.932 43.024 C 80.985 43.054, 86.759 44.271, 93.211 47.512 L 98.006 49.920 99.638 47.429 C 101.522 44.554, 101.705 44.853, 96.440 42.200 C 86.414 37.146, 70.768 35.649, 58.645 38.584 M 139.132 89.056 C 124.432 92.017, 114.943 102.894, 114.166 117.674 C 113.676 127.007, 115.804 133.454, 121.449 139.733 C 127.554 146.522, 133.676 149.366, 143.185 149.831 C 149.766 150.152, 151.634 149.848, 156.185 147.717 C 159.108 146.348, 162.394 144.542, 163.487 143.704 C 165.407 142.231, 165.413 142.114, 163.664 140.182 C 161.862 138.190, 161.835 138.194, 156.326 141.091 C 144.869 147.118, 131.397 143.935, 124.328 133.532 L 122.024 130.142 146.762 120.424 C 160.368 115.078, 171.644 110.590, 171.820 110.449 C 172.420 109.969, 167.740 101.508, 164.825 97.803 C 159.540 91.087, 148.206 87.229, 139.132 89.056 M 209.344 88.991 C 195.217 91.956, 185.880 103.229, 185.163 118.185 C 184.849 124.736, 185.161 126.673, 187.282 131.305 C 190.505 138.346, 195.630 143.948, 201.670 147.033 C 205.802 149.144, 207.872 149.500, 216 149.500 C 224.663 149.500, 225.972 149.238, 230.859 146.532 C 249.192 136.377, 252.474 112.344, 237.564 97.434 C 230.321 90.191, 219.316 86.898, 209.344 88.991 M 298 89.086 C 290.249 90.501, 284.390 94.099, 280.026 100.123 C 277.386 103.768, 277.195 103.858, 276.628 101.742 C 276.298 100.509, 276.021 97.362, 276.014 94.750 L 276 90 267.434 90 L 258.867 90 259.184 92.750 C 259.483 95.353, 259.807 95.516, 265.250 95.800 L 271 96.100 271 119.502 L 271 142.905 264.750 143.202 C 258.760 143.488, 258.487 143.614, 258.184 146.250 L 257.867 149 273.434 149 L 289 149 289 146 L 289 143 283 143 L 277 143 277.006 129.250 C 277.009 121.688, 277.504 113.700, 278.105 111.500 C 280.191 103.876, 290.667 96.025, 298.781 96.006 C 301.331 95.999, 302.309 94.329, 301.825 90.808 C 301.533 88.691, 301.139 88.513, 298 89.086 M 339.132 89.067 C 323.983 92.081, 314 104.114, 314 119.359 C 314 136.274, 325.660 148.667, 342.621 149.779 C 352.545 150.430, 358.902 148.193, 365.293 141.802 L 370.204 136.892 369.811 149.696 C 369.341 165.040, 367.340 170.770, 360.281 176.984 C 352.370 183.948, 339.547 184.575, 330.506 178.440 C 326.199 175.516, 325.781 175.479, 323.655 177.829 C 321.430 180.287, 321.454 180.350, 325.775 183.344 C 333.638 188.793, 346.185 190.519, 355.316 187.408 C 360.528 185.632, 369.264 178.323, 371.620 173.767 C 375.635 166.003, 375.978 162.471, 375.989 128.750 L 376 96 382 96 L 388 96 388 93 L 388 90 379.500 90 L 371 90 371 96.608 L 371 103.216 366.529 98.244 C 359.653 90.595, 349.143 87.075, 339.132 89.067 M 423.854 89.360 C 409.535 92.496, 400 104.487, 400 119.359 C 400 127.749, 402.286 133.989, 407.471 139.756 C 413.443 146.399, 419.582 149.249, 429.109 149.800 C 435.774 150.186, 437.492 149.914, 442.143 147.736 C 445.089 146.357, 448.394 144.542, 449.487 143.704 C 451.407 142.231, 451.413 142.114, 449.664 140.182 C 447.862 138.190, 447.835 138.194, 442.326 141.091 C 430.869 147.118, 417.397 143.935, 410.328 133.532 L 408.024 130.142 432.762 120.424 C 446.368 115.078, 457.644 110.590, 457.820 110.449 C 458.420 109.969, 453.740 101.508, 450.825 97.803 C 447.561 93.655, 439.533 89.407, 433.500 88.635 C 431.300 88.354, 426.959 88.680, 423.854 89.360 M 599.344 88.991 C 585.217 91.956, 575.880 103.229, 575.163 118.185 C 574.849 124.736, 575.161 126.673, 577.282 131.305 C 580.505 138.346, 585.630 143.948, 591.670 147.033 C 595.802 149.144, 597.872 149.500, 606 149.500 C 614.663 149.500, 615.972 149.238, 620.859 146.532 C 639.192 136.377, 642.474 112.344, 627.564 97.434 C 620.321 90.191, 609.316 86.898, 599.344 88.991 M 484.383 90.859 C 477.467 94.091, 473.989 101.532, 475.964 108.866 C 477.482 114.505, 480.695 117.096, 490.789 120.824 C 500.541 124.425, 503.622 126.862, 504.599 131.745 C 505.366 135.580, 502.333 141.072, 498.478 142.828 C 495.238 144.305, 486.288 144.345, 482.149 142.902 C 479.260 141.895, 479 141.441, 479 137.402 C 479 133.178, 478.879 133, 476 133 C 473.005 133, 473 133.009, 473 138.918 C 473 144.526, 473.172 144.943, 476.274 146.860 C 480.437 149.433, 490.294 151.043, 495.760 150.044 C 510.234 147.397, 516.255 129.638, 505.536 121.207 C 504.160 120.124, 499.313 117.765, 494.766 115.964 C 484.028 111.711, 482 109.877, 482 104.415 C 482 100.911, 482.533 99.730, 485.077 97.589 C 488.486 94.720, 494.235 94.140, 499.851 96.098 C 502.749 97.108, 503 97.551, 503 101.664 C 503 105.949, 503.113 106.120, 505.750 105.816 C 508.404 105.511, 508.500 105.293, 508.500 99.598 C 508.500 93.730, 508.477 93.684, 504.520 91.631 C 498.923 88.726, 489.702 88.372, 484.383 90.859 M 536.383 90.859 C 529.467 94.091, 525.989 101.532, 527.964 108.866 C 529.482 114.505, 532.695 117.096, 542.789 120.824 C 552.541 124.425, 555.622 126.862, 556.599 131.745 C 557.366 135.580, 554.333 141.072, 550.478 142.828 C 547.238 144.305, 538.288 144.345, 534.149 142.902 C 531.260 141.895, 531 141.441, 531 137.402 C 531 133.178, 530.879 133, 528 133 C 525.005 133, 525 133.009, 525 138.918 C 525 144.600, 525.140 144.923, 528.488 146.993 C 535.800 151.512, 548.818 151.370, 555.765 146.697 C 561.997 142.504, 564.811 132.402, 561.520 126.039 C 559.381 121.902, 556.096 119.659, 546.766 115.964 C 536.028 111.711, 534 109.877, 534 104.415 C 534 100.911, 534.533 99.730, 537.077 97.589 C 540.486 94.720, 546.235 94.140, 551.851 96.098 C 554.749 97.108, 555 97.551, 555 101.664 C 555 105.949, 555.113 106.120, 557.750 105.816 C 560.404 105.511, 560.500 105.293, 560.500 99.598 C 560.500 93.730, 560.477 93.684, 556.520 91.631 C 550.923 88.726, 541.702 88.372, 536.383 90.859 M 210.189 95.071 C 202.523 96.575, 194.096 104.397, 191.995 111.959 C 190.474 117.433, 190.856 125.089, 192.871 129.500 C 195.182 134.560, 202.528 141.359, 207.433 142.978 C 209.520 143.667, 214.003 144.042, 217.493 143.820 C 238.343 142.492, 248.086 117.897, 233.871 102.476 C 228.045 96.156, 219.028 93.336, 210.189 95.071 M 600.189 95.083 C 592.536 96.562, 584.098 104.389, 581.995 111.959 C 579.347 121.490, 581.746 130.615, 588.631 137.201 C 593.701 142.051, 598.627 144.005, 605.718 143.978 C 622.639 143.914, 634.225 128.604, 629.542 112.496 C 625.909 100, 613.337 92.542, 600.189 95.083 M 135.044 96.577 C 125.895 100.546, 120 109.309, 120 118.938 C 120 121.722, 120.222 124, 120.493 124 C 121.429 124, 162.502 107.749, 163.237 107.088 C 164.448 106, 158.101 99.092, 153.943 96.971 C 149.262 94.583, 140.083 94.392, 135.044 96.577 M 333.278 97.549 C 324.117 102.114, 319.481 110.507, 320.243 121.152 C 321.212 134.698, 331.060 143.956, 344.500 143.956 C 354.459 143.956, 362.755 139.063, 367.312 130.500 C 370.288 124.908, 370.286 114.085, 367.308 108.500 C 364.564 103.354, 359.492 98.515, 354.782 96.551 C 348.872 94.086, 339.339 94.528, 333.278 97.549 M 421.044 96.577 C 411.895 100.546, 406 109.309, 406 118.938 C 406 121.722, 406.222 124, 406.493 124 C 407.429 124, 448.502 107.749, 449.237 107.088 C 450.448 106, 444.101 99.092, 439.943 96.971 C 435.262 94.583, 426.083 94.392, 421.044 96.577 M 15.750 229.545 C 15.338 229.979, 15 231.360, 15 232.614 C 15 234.661, 15.539 234.927, 20.250 235.198 L 25.500 235.500 25.500 285 L 25.500 334.500 20.250 334.802 C 15.128 335.097, 15 335.179, 15 338.161 L 15 341.217 37.250 340.762 C 62.217 340.251, 67.195 339.251, 78.500 332.478 C 91.367 324.769, 99.260 314.124, 103.025 299.404 C 110.798 269.011, 94.109 239.611, 64.500 231.539 C 57.962 229.757, 17.137 228.087, 15.750 229.545 M 32 285 L 32 335 41.668 335 C 54.789 335, 63.141 333.439, 71.695 329.387 C 87.590 321.856, 97.426 306.963, 98.669 288.543 C 100.515 261.183, 81.740 238.840, 54.500 235.980 C 49.550 235.461, 42.462 235.028, 38.750 235.018 L 32 235 32 285 M 141.344 280.994 C 132.568 282.830, 124.037 289.325, 119.665 297.500 C 117.914 300.774, 117.523 303.223, 117.513 311 C 117.502 319.167, 117.849 321.184, 119.991 325.377 C 124.959 335.105, 136.369 342, 147.500 342 C 153.300 342, 161.890 339.229, 166 336.033 L 168.500 334.088 166.285 331.857 C 164.153 329.709, 163.998 329.692, 162.101 331.408 C 157.571 335.508, 147.495 337.098, 139.723 334.940 C 135.700 333.823, 130.244 329.556, 126.985 324.979 L 125.001 322.193 149.750 312.384 C 163.363 306.989, 174.643 302.490, 174.817 302.387 C 175.447 302.014, 170.054 292.217, 167.638 289.347 C 162.046 282.701, 150.587 279.061, 141.344 280.994 M 212.344 281.041 C 203.659 282.760, 195.054 289.292, 190.665 297.500 C 188.914 300.774, 188.523 303.223, 188.513 311 C 188.502 319.167, 188.849 321.184, 190.991 325.377 C 198.506 340.092, 217.847 346.227, 232.771 338.629 C 237.381 336.282, 237.913 335.705, 237.015 334.028 C 235.390 330.992, 234.387 330.839, 230.631 333.055 C 226.066 335.749, 217.349 336.638, 211.516 335.004 C 205.872 333.424, 198.326 326.926, 195.878 321.539 C 191.405 311.690, 194.987 297.909, 203.729 291.332 C 211.108 285.780, 223.580 284.874, 230.470 289.388 C 232.667 290.828, 233 291.767, 233 296.523 C 233 301.698, 233.138 302, 235.500 302 C 237.953 302, 238 301.852, 238 294.216 C 238 286.707, 237.898 286.371, 235.133 284.737 C 231.870 282.810, 221.598 279.945, 218.540 280.110 C 217.418 280.170, 214.630 280.589, 212.344 281.041 M 274.734 281.030 C 264.783 283.529, 256.333 290.853, 252.896 299.957 C 250.149 307.235, 250.602 318.426, 253.903 324.845 C 259.318 335.375, 270.169 342, 282 342 C 303.628 342, 318.511 320.685, 310.943 300.551 C 308.146 293.109, 301.590 285.930, 295.002 283.096 C 289.245 280.620, 280.086 279.686, 274.734 281.030 M 361.951 281.362 C 359.448 282.037, 355.767 283.599, 353.770 284.833 C 349.759 287.312, 344.039 293.387, 343.930 295.285 C 343.719 298.935, 342.130 291.607, 342.070 286.710 L 342 280.919 333.750 281.210 C 325.575 281.497, 325.497 281.525, 325.184 284.250 C 324.869 286.983, 324.906 287, 330.934 287 L 337 287 337 311 L 337 335 330.500 335 L 324 335 324 338 L 324 341 339.500 341 L 355 341 355 338 L 355 335 349 335 L 343 335 343.006 321.250 C 343.012 305.100, 343.884 301.241, 348.741 295.864 C 353.024 291.124, 356.151 289.376, 362.950 287.917 C 367.820 286.873, 368 286.713, 368 283.417 C 368 279.602, 368.211 279.674, 361.951 281.362 M 403 283.433 C 396.930 285.672, 382.767 293.100, 383.386 293.719 C 383.712 294.045, 388.433 292.217, 393.877 289.656 C 399.321 287.095, 404.501 285, 405.388 285 C 408.809 285, 406.717 286.974, 400.025 290.058 C 396.189 291.826, 393.272 293.630, 393.542 294.067 C 393.812 294.504, 396.838 293.587, 400.266 292.029 C 403.695 290.472, 406.837 289.404, 407.250 289.658 C 408.821 290.622, 407.882 291.845, 404.750 292.916 C 398.793 294.954, 387.002 300.490, 387.001 301.250 C 386.999 302.559, 388.532 302.096, 397.759 298 C 407.631 293.618, 409 293.304, 409 295.421 C 409 296.211, 407.558 297.156, 405.750 297.551 C 403.962 297.941, 399.575 299.613, 396 301.266 C 392.425 302.918, 387.250 305.309, 384.500 306.578 C 380.872 308.251, 380.128 308.901, 381.788 308.942 C 383.047 308.974, 388.606 306.924, 394.142 304.386 C 404.013 299.862, 409.198 298.559, 409.805 300.451 C 409.973 300.974, 407.498 302.151, 404.305 303.067 C 401.112 303.983, 394.168 306.794, 388.873 309.316 C 383.579 311.837, 378.066 314.196, 376.623 314.558 C 375.181 314.921, 374 315.667, 374 316.217 C 374 317.842, 378.703 316.258, 391.164 310.436 C 402.906 304.949, 412.711 302.368, 411.835 304.994 C 411.596 305.711, 409.032 306.903, 406.137 307.644 C 403.243 308.385, 396.033 311.241, 390.117 313.990 C 384.200 316.739, 377.254 319.278, 374.680 319.630 C 369.919 320.283, 368.150 322.005, 372.250 321.994 C 376.313 321.984, 382.341 319.934, 393.098 314.902 C 404.049 309.779, 414.569 307.158, 416.467 309.079 C 417.180 309.800, 416.957 310.431, 415.750 311.112 C 414.788 311.655, 414 313.216, 414 314.581 C 414 315.946, 413.295 317.333, 412.434 317.664 C 411.233 318.124, 411.015 319.127, 411.495 321.970 C 412.100 325.550, 412.813 331.901, 413.389 338.838 C 413.773 343.462, 418.266 345.846, 420.763 342.750 C 421.850 341.402, 424.306 324.973, 423.536 324.203 C 423.280 323.947, 423.564 322.814, 424.168 321.686 C 425.070 320, 424.886 319.326, 423.133 317.907 C 421.960 316.957, 421 315.329, 421 314.290 C 421 313.250, 420.515 311.915, 419.923 311.323 C 419.153 310.553, 419.534 309.557, 421.256 307.835 C 423.925 305.166, 428 291.780, 428 285.682 L 428 282 417.250 282.070 C 411.121 282.111, 404.996 282.696, 403 283.433 M 409.536 288.211 C 410.442 293.576, 413.878 304.195, 415.128 305.492 C 415.755 306.142, 416.439 305.970, 417.118 304.992 C 417.897 303.868, 418.277 303.808, 418.659 304.750 C 418.938 305.438, 419.560 306, 420.040 306 C 421.207 306, 426 290.679, 426 286.948 L 426 284 417.412 284 L 408.824 284 409.536 288.211 M 142.222 287.041 C 131.729 289.161, 123.880 298.518, 123.164 309.761 C 122.777 315.836, 122.883 316.260, 124.624 315.604 C 125.656 315.215, 135.630 311.275, 146.789 306.848 C 169.070 298.009, 167.862 299.132, 162.050 292.661 C 157.313 287.386, 150.322 285.404, 142.222 287.041 M 273.707 287.612 C 264.569 290.421, 257.060 300.725, 257.028 310.500 C 257.003 317.858, 258.548 322.205, 262.974 327.233 C 276.884 343.036, 301.988 336.330, 306.130 315.706 C 308.533 303.742, 300.860 291.108, 289.068 287.611 C 282.548 285.677, 280.003 285.677, 273.707 287.612 M 416.667 313.667 C 415.516 314.817, 415.938 316, 417.500 316 C 418.325 316, 419 315.325, 419 314.500 C 419 312.938, 417.817 312.516, 416.667 313.667 M 414.131 319.342 C 413.519 320.080, 413.223 320.890, 413.474 321.141 C 413.726 321.392, 414.216 324.726, 414.564 328.549 C 414.912 332.372, 415.300 336.525, 415.426 337.778 C 415.698 340.483, 417.436 342.467, 418.796 341.626 C 420.736 340.427, 422.445 319.903, 420.697 318.792 C 418.802 317.587, 415.348 317.876, 414.131 319.342" stroke="none" fill="#000000" fill-rule="evenodd"/>
</svg>